<?xml version="1.0" encoding="UTF-8"?>
<svg id="Layer_1" xmlns="http://www.w3.org/2000/svg" xmlns:xlink="http://www.w3.org/1999/xlink" viewBox="0 0 154.06 39.1">
  <defs>
    <style>
      .cls-1 {
        fill: #fff;
      }

      .cls-2 {
        clip-path: url(#clippath);
      }
    </style>
    <clipPath id="clippath">
      <path id="SVGID-2" data-name="SVGID" class="cls-1" d="M27.89,10.21c-4.23,1.72-6.64,5.1-5.39,7.55,1.25,2.44,5.7,3.03,9.93,1.31,4.23-1.72,6.64-5.1,5.39-7.55-.77-1.5-2.73-2.3-5.11-2.3-1.51,0-3.18.32-4.82.99"/>
    </clipPath>
  </defs>
  <g>
    <path class="cls-1" d="M89,13.31c-2.93,0-4.71,1.4-5.43,4.33h10.73c-.34-2.84-2.21-4.33-5.3-4.33M83.27,20.65c.22,3.69,2.29,5.85,5.56,5.85,2.89,0,4.71-1.14,6.15-3.86l3.78,2.12c-2.21,3.94-5.43,5.85-9.85,5.85-6.28,0-10.31-4.16-10.31-10.56s4.2-10.56,10.31-10.56,10.06,3.77,10.06,10.31v.85h-15.7Z"/>
    <path class="cls-1" d="M74.02,10.08l-5.28,13.93h-.17l-.02-.04-5.22-13.89h-5.21l7.94,20.32h5.15l7.72-20.32h-4.89Z"/>
    <path class="cls-1" d="M101.64,30.39h4.78v-11.14c0-.28.06-.69.19-1.26.12-.56.37-1.12.74-1.68.37-.56.91-1.06,1.62-1.49.7-.43,1.64-.65,2.8-.65.38,0,.78.04,1.18.1.37.06.74.15,1.13.25v-4.67c-.27-.07-.55-.14-.83-.19-.28-.05-.57-.08-.87-.08-1.29,0-2.45.31-3.44.94-1,.62-1.77,1.52-2.31,2.66l-.02.04h-.19v-3.15h-4.78v20.31ZM125.6,26.31c-.9,0-1.73-.17-2.44-.51-.71-.34-1.33-.79-1.84-1.35s-.9-1.22-1.16-1.95-.39-1.5-.39-2.28.13-1.55.39-2.28c.26-.73.65-1.39,1.16-1.95.51-.56,1.13-1.02,1.84-1.35s1.54-.51,2.44-.51,1.73.17,2.44.51c.71.34,1.33.79,1.84,1.35s.9,1.22,1.16,1.95.39,1.5.39,2.28-.13,1.55-.39,2.28-.65,1.38-1.16,1.95-1.13,1.02-1.84,1.35c-.72.34-1.54.51-2.44.51M124.41,9.74c-1.37,0-2.66.27-3.82.81-1.16.54-2.16,1.29-2.98,2.22s-1.47,2.06-1.93,3.33c-.46,1.27-.69,2.65-.69,4.12s.22,2.85.65,4.12c.43,1.27,1.08,2.39,1.91,3.33.84.94,1.88,1.7,3.03,2.22,1.17.54,2.53.81,4.04.81,1.37,0,2.68-.28,3.86-.83,1.18-.55,2.14-1.44,2.83-2.65l.02-.03h.18v3.27h4.53V3.18h-4.78v9.61h-.22l-.02-.03c-.24-.33-.56-.67-.93-1.02s-.84-.67-1.38-.98-1.16-.55-1.87-.74c-.7-.19-1.52-.29-2.44-.29M138.1,27.65c.99,1.14,2.12,1.94,3.37,2.38,1.27.45,2.68.67,4.19.67,1,0,2.01-.11,3.02-.34,1-.22,1.91-.59,2.7-1.09.79-.5,1.46-1.18,1.94-1.98.49-.81.74-1.83.74-3.02,0-1.3-.26-2.33-.77-3.08s-1.16-1.34-1.94-1.77c-.78-.43-1.64-.76-2.54-.96-.98-.23-1.82-.42-2.56-.61-.79-.19-1.46-.44-1.98-.72-.54-.29-.81-.77-.81-1.41,0-.78.33-1.35.98-1.7.63-.34,1.29-.51,1.95-.51,1.6,0,2.9.68,3.86,2.03l3.17-2.94c-.78-1.08-1.8-1.86-3.04-2.31-2.22-.8-4.55-.9-6.76-.31-.94.25-1.78.64-2.51,1.17-.72.52-1.32,1.21-1.76,2.02-.44.82-.67,1.79-.67,2.9,0,1.27.26,2.28.77,3s1.16,1.29,1.94,1.68c.78.4,1.64.7,2.54.88.92.18,1.78.38,2.56.59.8.21,1.46.49,1.98.83.54.35.81.89.81,1.62,0,.4-.11.77-.32,1.07s-.48.56-.82.76c-.33.2-.7.34-1.09.43-.38.08-.76.13-1.12.13-1.04,0-1.95-.24-2.68-.7-.71-.45-1.38-1.04-1.99-1.75l-3.17,3.07h0Z"/>
  </g>
  <g>
    <path class="cls-1" d="M21.56,39.1c3.78-5.33,4.48-10.72,2.44-16.89-3.05,3.63-3.86,9.26-2.44,16.89M28.09,38.89c3.26-4.89,2.6-10.72-1.03-17.06-1.98,6.17-1.55,12.26,1.03,17.06M32.9,21.63c1.59,6.45,4.34,10.33,8.23,11.63-.48-7.7-3.02-11.65-7.7-11.65-.17,0-.35,0-.53.02M34.52,36.62c1.32-5.78-.06-10.87-4.41-15.06-1.2,4.29.26,9.31,4.41,15.06M12.3,36.76c7.11-3.3,9.58-8.03,8.73-15.25-5.53,5.43-8.46,11.17-8.73,15.25M4.1,31.36c8.88-1.22,13.36-4.39,15.33-11.29-5.86,1.61-10.3,4.81-15.33,11.29M36.86,19.74c1.79,4.72,5.16,7.24,10.13,7.56-1.95-5.13-4.85-7.73-8.5-7.73-.53,0-1.08.05-1.64.16M0,22.14c10.41,1.32,15.95-.47,19.12-5.07-1.33-.27-2.6-.39-3.83-.39-5.42,0-10.02,2.4-15.3,5.45M39.13,17.48c3.61,3.22,8.13,3.54,13.57.97-2.21-1.8-4.6-2.72-7.17-2.72-2.03,0-4.17.57-6.4,1.74M1.19,12.95c8.92,3.53,12.09,4.09,17.24,2.18-1.65-2.43-3.43-3.69-7.24-3.69-2.38,0-5.56.49-10,1.51M40.78,13.94c3.94,1.82,8.88,1.01,14.82-2.43-2.44-.82-4.65-1.23-6.64-1.23-3.42,0-6.16,1.22-8.19,3.66M20.67,12.79c-2.18-4.06-5.21-5.64-12.12-5.79,2.18,2.59,6.78,5.6,12.12,5.79M40.65,10.15c4.65.75,8.69-.69,12.08-4.35-.42-.06-.85-.09-1.3-.09-3.12,0-6.8,1.51-10.78,4.44M22.59,10.23c-.1-2.69-1.94-5.46-7.14-6.53,2.04,5.27,3.98,7.27,7.14,6.53M39.18,8.62c4.06-.14,7.47-2.11,9.98-6.02-4.12.33-7.49,2.27-9.98,6.02M29.27,7.48c1.45-2.98.94-4.68-2.93-5.75-.33,3.67.12,5.37,2.93,5.75M25.96,8.78c.38-3.88-.63-6.27-4.95-7.06.19,4.56.9,6.89,4.95,7.06M32.51,6.92c2.41-2.72,1.63-4.47-1.4-5.72-1.07,2.22-.36,4.02,1.4,5.72M37.76,7.72c2.13-.36,4.03-2.55,5.71-6.58-4.08,1.11-6.01,3.37-5.71,6.58M35.33,7.01c2.94-.91,3.23-3.05,1.79-7.01-2.54,2.8-2.89,4.94-1.79,7.01"/>
    <g>
      <path id="SVGID" class="cls-1" d="M27.89,10.21c-4.23,1.72-6.64,5.1-5.39,7.55,1.25,2.44,5.7,3.03,9.93,1.31,4.23-1.72,6.64-5.1,5.39-7.55-.77-1.5-2.73-2.3-5.11-2.3-1.51,0-3.18.32-4.82.99"/>
      <g class="cls-2">
        <rect class="cls-1" x="21.25" y="8.49" width="17.83" height="12.29"/>
      </g>
    </g>
  </g>
</svg>